<svg width="30" height="21" viewBox="0 0 30 21" fill="none" xmlns="http://www.w3.org/2000/svg">
<path fill-rule="evenodd" clip-rule="evenodd" d="M29.7143 18.474C29.7094 19.6611 28.7566 20.6217 27.5808 20.625H2.13349C0.957706 20.6217 0.00489461 19.6611 0 18.474V2.154C0.00326476 0.965747 0.956551 0.00329614 2.13349 0H27.5808C28.7578 0.00329614 29.7111 0.965747 29.7143 2.154V18.474Z" fill="#68B1F0"/>
<path fill-rule="evenodd" clip-rule="evenodd" d="M1.44286 9.70234H0L0.0146341 9.00024H0.89991L1.22988 8.19221H2.9997L3.31467 9.00024H5.0245V6.19484L6.25437 9.00024H7.0043L8.23418 6.19484V9.00326H9.09209L9.08909 9.00024V5.43827H7.70023L6.68333 7.85932L5.55844 5.43827H4.16958V8.78537L2.72973 5.43827H1.49985L0.0153962 8.96367L0.0539946 7.11182L1.07089 4.73919H3.26067L3.53065 5.34445V4.73919H6.08339L6.68333 6.03445L7.21728 4.73919H15.3975C15.7399 4.71146 16.081 4.80687 16.3604 5.00853V4.73919H18.6071V5.00853C19.0409 4.80105 19.5199 4.70836 19.999 4.73919H23.2657L23.5866 5.34445V4.73919H25.9864L26.3074 5.34445V4.73919H28.6591V9.70234H26.3074L25.8784 8.94577V9.70234H22.9387L22.6177 8.89129H21.8708L21.5498 9.70234H19.999C19.5336 9.70577 19.0744 9.59462 18.6611 9.37853V9.70234H15.0255V8.5705C15.0255 8.40708 15.0255 8.40708 14.9175 8.40708H14.7585V9.70234H7.70323V9.09708L7.43326 9.70234H5.93341L5.66643 9.09708V9.70234H2.83472L2.51075 8.89129H1.76382L1.44286 9.70234ZM0.0153962 8.96367L0.0146341 9.00024H0L0.0153962 8.96367ZM27.8582 9.00326H26.6973L25.0775 6.30379V9.00024H23.3647L23.0437 8.19221H21.2799L20.9619 9.00024H19.999C19.5586 9.01663 19.1255 8.88342 18.7691 8.62195C18.4452 8.29813 18.3402 7.91984 18.3402 7.27524C18.3008 6.76035 18.4745 6.252 18.8201 5.87103C19.1725 5.56178 19.632 5.40615 20.098 5.43827H20.9079V6.19484H20.098C19.8637 6.16477 19.6286 6.24384 19.4591 6.40971C19.2659 6.63318 19.1688 6.92498 19.1891 7.22076C19.1641 7.52408 19.2389 7.82724 19.4021 8.08326C19.51 8.24669 19.777 8.24669 20.002 8.24669H20.374L21.5528 5.43827H22.8337L24.2766 8.78537V5.43827H25.5634L27.0633 7.91984V5.43827H27.9182L27.8642 9.00024L27.8582 9.00326ZM2.67273 7.49011L2.09979 6.08892L1.49985 7.49011H2.67273ZM15.4005 6.88484C15.2633 6.93056 15.1185 6.94805 14.9745 6.93629H13.9546V6.14037H14.9715C15.1305 6.14037 15.2925 6.14037 15.3465 6.19484C15.4586 6.26129 15.521 6.38843 15.5055 6.51866C15.5594 6.73353 15.5055 6.8455 15.3975 6.89695L15.4005 6.88484ZM22.1288 6.08892L22.7287 7.49011H21.5288L22.1288 6.08892ZM9.73103 9.00326H12.5147L12.5657 9.00024V8.29813H10.5859V7.59603H12.5117V6.84248H10.5859V6.19484H12.5657V5.43827H9.73103V9.00326ZM16.5223 6.41577C16.5326 6.83139 16.2967 7.2133 15.9224 7.38721C16.0853 7.4626 16.2304 7.57193 16.3484 7.708C16.4729 7.89942 16.5299 8.12753 16.5103 8.35563V9.05774H15.6104V8.62195C15.6392 8.3793 15.583 8.13414 15.4515 7.92892C15.2777 7.80312 15.0642 7.74604 14.8515 7.76853H13.9516V9.06379H13.0997V5.50787H15.0255C15.3716 5.46903 15.7217 5.52442 16.0394 5.66827C16.3623 5.76149 16.5681 6.08007 16.5223 6.41577ZM17.0023 9.00326H17.8602V5.43827H17.0023V9.00326Z" fill="white"/>
<path fill-rule="evenodd" clip-rule="evenodd" d="M28.8757 15.0949C29.3977 15.0949 29.7846 14.9889 29.9976 14.6651H30.0006L29.9466 15.6366C29.5576 15.7995 29.1374 15.8729 28.7167 15.8514H26.5269V15.5307C26.1989 15.7633 25.8022 15.8764 25.4021 15.8514H18.5028V14.7196C18.5028 14.5592 18.5028 14.5592 18.3408 14.5592H18.2328V15.8514H15.989V14.5017C15.612 14.6356 15.212 14.6912 14.8131 14.6651H14.5461V15.8514H11.8194L11.1235 15.0979L10.4276 15.8514H6V10.8913H10.5355L11.1745 11.6449L11.8704 10.8913H14.9211C15.2421 10.8913 15.83 10.8913 16.097 11.1607V10.8913H18.8237C19.2145 10.8819 19.6009 10.9747 19.9456 11.1607V10.8913H24.0642V11.1607C24.3701 10.9759 24.7217 10.8825 25.0781 10.8913H27.3789V11.1607C27.7018 10.9693 28.0725 10.8758 28.4468 10.8913H29.9976V11.5904H28.3388C27.4299 11.5904 27.1089 12.1291 27.1089 12.6708C27.1089 13.6508 27.9057 13.6943 28.6548 13.7351L28.6548 13.7352L28.6548 13.7352L28.6549 13.7352L28.6549 13.7352L28.6549 13.7352L28.655 13.7352L28.655 13.7352L28.6551 13.7352C28.7294 13.7392 28.8032 13.7432 28.8757 13.7482C29.0347 13.7482 29.1397 13.7482 29.1937 13.8026C29.2608 13.8534 29.3007 13.9328 29.3017 14.0175C29.2888 14.0988 29.2511 14.1739 29.1937 14.2324C29.1397 14.3413 29.0347 14.3413 28.8757 14.3413H27.2709V15.0949H28.8757ZM28.4468 12.3439H29.9976V13.3699C29.9976 13.3154 29.9976 13.2609 29.9436 13.2609C29.6632 13.0614 29.3229 12.9662 28.9807 12.9916H28.5008C28.3908 13.0053 28.2793 12.9864 28.1798 12.9371C28.0801 12.885 28.0176 12.7811 28.0178 12.6678C28.0178 12.5618 28.0178 12.4529 28.1258 12.3984C28.1798 12.3439 28.2848 12.3439 28.4468 12.3439ZM26.6289 13.2639C26.8218 13.4643 26.9192 13.7392 26.8959 14.0175C26.8959 14.7741 26.413 15.1524 25.558 15.1524H23.9022V14.3413H25.561C25.72 14.3413 25.828 14.3413 25.879 14.2324C25.9364 14.1739 25.9742 14.0988 25.987 14.0175C25.9861 13.9328 25.9462 13.8534 25.879 13.8026C25.828 13.7482 25.72 13.7482 25.561 13.7482C25.4885 13.7432 25.4147 13.7392 25.3404 13.7352L25.3403 13.7352L25.3403 13.7352L25.3402 13.7352L25.3402 13.7352L25.3402 13.7352L25.3401 13.7352L25.3401 13.7351C24.591 13.6943 23.7942 13.6508 23.7942 12.6708C23.7942 12.1291 24.1152 11.5904 25.0241 11.5904H26.7369V12.347H25.1981C25.0361 12.347 24.9311 12.347 24.8771 12.3984C24.7691 12.4559 24.7691 12.5618 24.7691 12.6708C24.7515 12.7875 24.82 12.9001 24.9311 12.9371C25.0307 12.9859 25.1421 13.0048 25.2521 12.9916H25.735C26.0577 12.951 26.3824 13.0499 26.6289 13.2639ZM18.6077 13.1005C18.7529 13.1129 18.8991 13.0944 19.0367 13.0461C19.1425 12.9496 19.2016 12.8116 19.1987 12.6678C19.2128 12.5347 19.145 12.4064 19.0277 12.3439C18.8895 12.2982 18.7437 12.2807 18.5987 12.2925H17.5938V13.1005H18.6077ZM19.5166 13.4788C19.6889 13.5403 19.8385 13.6533 19.9456 13.8026C20.0646 13.995 20.1183 14.2213 20.0986 14.4472V15.1493H19.2497V14.7166C19.2801 14.4715 19.2226 14.2236 19.0877 14.0175C18.9021 13.8827 18.6725 13.8243 18.4458 13.8541H17.5458V15.1493H16.6819V11.5874H18.5987C18.9451 11.5478 19.2957 11.6043 19.6126 11.7508C19.9024 11.9099 20.071 12.2273 20.0416 12.5588C20.0811 12.9475 19.8696 13.3181 19.5166 13.4788ZM23.4193 11.5904H20.5875V15.1493H23.4193V14.3958H21.4425V13.6937H23.3683V12.9916H21.4425V12.3439H23.4193V11.5904ZM14.9181 13.2095H13.8502V12.3016H14.9721C15.2931 12.3016 15.5061 12.4075 15.5061 12.7313C15.3981 13.0461 15.2391 13.2095 14.9181 13.2095ZM11.6994 13.3759L12.9923 14.8255L12.9803 11.9747L11.6994 13.3759ZM9.62664 14.3958H7.52685V13.6937H9.39866V12.9946H7.53885V12.347H9.67763L10.5775 13.3699L9.62664 14.3958ZM14.8671 13.9086C15.56 13.9086 16.31 13.6937 16.31 12.7222C16.31 11.7508 15.56 11.5904 14.8671 11.5359H12.1914L11.1235 12.7222L10.1066 11.5359H6.75292V15.0949H10.0526L11.1235 13.9086L12.1374 15.0949H13.7992V13.9086H14.8671Z" fill="white"/>
</svg>
