<svg width="24" height="24" viewBox="0 0 24 24" fill="none" xmlns="http://www.w3.org/2000/svg">
<path fill-rule="evenodd" clip-rule="evenodd" d="M15.9073 9.18938C16.5118 9.18938 17.002 8.69927 17.002 8.09469C17.002 7.49011 16.5118 7 15.9073 7C15.3027 7 14.8126 7.49011 14.8126 8.09469C14.8126 8.69927 15.3027 9.18938 15.9073 9.18938ZM6.50003 7.76839H13.6225C13.609 7.8694 13.6021 7.9725 13.6021 8.07726C13.6021 8.31819 13.6388 8.55039 13.7068 8.76839H7.00003V14.0878L7.00002 15.3799L9.33919 13.683L9.47053 13.5878H9.63278H15.7103V10.3535C15.7539 10.3561 15.7977 10.3574 15.8419 10.3574C16.1498 10.3574 16.4433 10.2941 16.7103 10.1797V14.0878V14.5878H16.2103H9.79504L6.7936 16.765L6 17.3407L6.00001 16.3603L6.00003 14.0878V8.26839V7.76839H6.50003ZM14.7798 8.07726C14.7798 7.96993 14.7951 7.86626 14.8237 7.76839H14.8238C14.7952 7.86625 14.7799 7.96992 14.7799 8.07725C14.7799 8.34007 14.872 8.581 15.0251 8.76839H15.025C14.8719 8.581 14.7798 8.34008 14.7798 8.07726Z" fill="black"/>
</svg>
