<svg width="24" height="24" viewBox="0 0 24 24" fill="none" xmlns="http://www.w3.org/2000/svg">
<path fill-rule="evenodd" clip-rule="evenodd" d="M11.8178 7.53593C11.8058 7.55176 11.7939 7.56772 11.7821 7.58379C11.7939 7.56772 11.8058 7.55177 11.8178 7.53593M12.3108 9.32774L11.8002 10.5405L11.2377 9.35332C10.5811 7.96732 9.60909 7.36862 8.73424 7.26825C7.84105 7.16577 7.00476 7.57003 6.55208 8.29158C6.11182 8.99335 5.96765 10.1113 6.69648 11.5727C7.40202 12.9873 8.91866 14.6921 11.7019 16.5022L11.7688 16.5458L11.8357 16.5022C14.6164 14.6924 16.111 12.9888 16.7923 11.5775C17.4947 10.1227 17.3299 9.00301 16.8699 8.29343C16.3952 7.5613 15.5436 7.15913 14.6687 7.26152C13.8169 7.36122 12.8903 7.95136 12.3108 9.32774ZM11.4645 17.8087L11.7688 18L12.0732 17.8087C15.1963 15.8459 16.9992 13.903 17.8499 12.141C18.7094 10.3608 18.5977 8.74543 17.85 7.59217C17.1167 6.46128 15.8285 5.87225 14.5375 6.02335C13.5388 6.14024 12.5707 6.69191 11.8419 7.71025L11.7453 7.8452L11.6446 7.71329C10.8672 6.69493 9.87218 6.14557 8.86293 6.02978C7.56012 5.8803 6.27686 6.46651 5.56193 7.60609C4.83468 8.7653 4.76268 10.3796 5.64605 12.1508C6.52183 13.9068 8.34208 15.8465 11.4645 17.8087Z" fill="black"/>
</svg>
