<svg width="24" height="24" viewBox="0 0 24 24" fill="none" xmlns="http://www.w3.org/2000/svg">
<path fill-rule="evenodd" clip-rule="evenodd" d="M17.6937 14.3547L20.8333 12L12 5.375L8.87573 7.71817L9.70761 8.34426L12 6.625L19.1666 12L16.8618 13.7286L17.6937 14.3547ZM13.9453 11.5336C13.7352 10.654 12.944 10 12 10C11.9699 10 11.94 10.0007 11.9102 10.002L13.9453 11.5336ZM6.37695 9.59226L3.16663 12L12 18.625L15.1949 16.2288L14.363 15.6027L12 17.375L4.83329 12L7.20883 10.2183L6.37695 9.59226ZM16.0278 15.6041L16.0278 15.6041L15.196 14.978L15.1959 14.978L16.0278 15.6041ZM13.2805 13.5364C13.2805 13.5364 13.2805 13.5364 13.2805 13.5364L10.1688 11.1945C10.1688 11.1945 10.1688 11.1945 10.1688 11.1945L13.2805 13.5364ZM10.0289 12.3408C10.1907 13.283 11.0116 14 12 14C12.0736 14 12.1463 13.996 12.2179 13.9883L10.0289 12.3408ZM8.04176 9.59365L8.04178 9.59363L7.2099 8.96754L7.20987 8.96756L8.04176 9.59365Z" fill="black"/>
<path fill-rule="evenodd" clip-rule="evenodd" d="M19.1 16.6647L4.15666 5.41805L3.30053 5.3995L3.55532 6.21705L18.495 17.4609L19.2804 17.4262L19.1 16.6647Z" fill="black"/>
</svg>
