<svg width="24" height="24" viewBox="0 0 24 24" fill="none" xmlns="http://www.w3.org/2000/svg">
<path fill-rule="evenodd" clip-rule="evenodd" d="M5 5.30005H5.5L18.5 5.30005H19V5.80005V14.8V15.3H18.5H14.2676L12.416 18.0774L12 18.7014L11.584 18.0774L9.73241 15.3H8.5H5.5H5V14.8L5 5.80005V5.30005ZM6 6.30005L6 14.3H8.5H10H10.2676L10.416 14.5227L12 16.8987L13.584 14.5227L13.7324 14.3H14H18V6.30005L6 6.30005Z" fill="black"/>
<path d="M10.7165 12.3H10L11.61 8.30005H12.39L14 12.3H13.2835L12.0186 9.02661H11.9836L10.7165 12.3ZM10.8367 10.7336H13.1611V11.2415H10.8367V10.7336Z" fill="black"/>
</svg>
