<svg width="24" height="24" viewBox="0 0 24 24" fill="none" xmlns="http://www.w3.org/2000/svg">
<path fill-rule="evenodd" clip-rule="evenodd" d="M17.3979 14.5H8.6952L8 15L8.6952 15.5H17.3933L18 15L17.3979 14.5Z" fill="black"/>
<path fill-rule="evenodd" clip-rule="evenodd" d="M17.3979 11.5H8.6952L8 12L8.6952 12.5H17.3933L18 12L17.3979 11.5Z" fill="black"/>
<path fill-rule="evenodd" clip-rule="evenodd" d="M17.3979 8.5H8.6952L8 9L8.6952 9.5H17.3933L18 9L17.3979 8.5Z" fill="black"/>
<path fill-rule="evenodd" clip-rule="evenodd" d="M6.50804 11.5L7 12L6.50804 12.5L6 12L6.50804 11.5Z" fill="black"/>
<path fill-rule="evenodd" clip-rule="evenodd" d="M6.50804 14.5L7 15L6.50804 15.5L6 15L6.50804 14.5Z" fill="black"/>
<path fill-rule="evenodd" clip-rule="evenodd" d="M6.50804 8.5L7 9L6.50804 9.5L6 9L6.50804 8.5Z" fill="black"/>
</svg>
