<svg fill="none" xmlns="http://www.w3.org/2000/svg" viewBox="0 0 608 249"><g clip-path="url(#a)" fill="black"><path d="m225.612 88.07-8.574-3.68 19.107-19.135 19.107 19.135-9.063 3.68v2.944h27.681V88.07l-5.39-2.453-26.211-26.495 15.923-15.946c3.184-3.189 7.839-5.397 12.738-5.642V34.59h-20.332v2.944c1.96 0 3.674 1.717 3.674 3.68 0 .981-.245 1.717-.734 2.453L240.064 57.16l-13.228-13.493c-.489-.736-.979-1.472-.979-2.453 0-1.963 1.714-3.68 3.674-3.68h.245V34.59h-23.761v2.944c1.959 0 3.429.736 4.654 1.963l23.271 23.55-22.781 22.815-5.144 2.208v2.944h19.597V88.07ZM527.652 48.083v36.062l-8.574 3.68v2.944h27.436v-2.944l-8.574-3.68c-.245-1.472-.49-6.133-.49-11.775v-9.568c0-4.906.245-8.586 1.225-11.53.735-2.699 2.45-5.397 5.144-8.096 2.205-2.208 4.41-3.434 6.125-3.68-.735 1.227-.98 2.454-.98 3.68 0 4.17 3.429 7.36 7.349 7.36 3.919 0 7.349-3.434 7.349-7.36 0-.98-.245-2.208-.735-2.944-.49-.98-.98-1.962-1.96-2.943-1.715-1.718-3.919-2.699-6.859-2.699-3.185 0-6.614 1.227-9.799 3.925-2.694 2.208-4.899 4.907-6.369 7.85V34.59h-3.919l-14.943 2.944v2.944h1.225c4.164.245 7.349 3.434 7.349 7.605ZM145.019 84.39V0h-3.92l-14.943 2.944v2.944h1.225c4.165 0 7.594 3.434 7.594 7.605v70.652l-8.574 3.68-8.573-3.68L83.778 0h-3.43l-34.05 82.182-2.94 1.963-8.573 3.68v2.944H62.22v-2.944l-8.574-3.68c-2.205-.981-2.694-1.963-2.694-3.68 0-.49 0-.981.244-1.472l8.82-21.343H93.82L104.6 84.145l-9.064 3.68v2.944h58.301v-2.944l-8.818-3.435ZM60.996 54.952l15.923-38.27 15.432 38.27H60.996ZM202.34 78.748c-3.429 7.114-9.064 10.794-17.147 10.794-5.88 0-10.289-2.453-13.228-7.114-2.94-4.662-4.41-12.021-4.41-21.589v-2.943h35.03l2.94-2.944c-.245-4.907-2.205-9.568-6.124-13.738-3.92-4.416-9.309-6.378-16.413-6.378-7.594 0-13.718 2.943-18.862 8.586-5.145 5.642-7.594 12.756-7.594 21.343 0 6.132 1.225 11.284 3.919 15.455 2.695 4.17 5.879 7.605 10.044 9.813 4.164 2.207 8.329 3.434 12.983 3.434 4.899 0 9.553-1.227 13.718-3.68 4.164-2.453 6.859-6.133 8.329-10.549l-3.185-.49ZM167.8 54.952l.245-2.453c1.47-10.059 6.369-14.965 14.453-14.965 3.185 0 6.124.981 8.329 3.19 2.204 2.207 3.429 5.15 3.429 9.076 0 .736 0 1.717-.245 2.699-.245.98-.245 1.471-.245 2.453H167.8ZM510.749 78.748c-3.429 7.114-9.063 10.794-17.147 10.794-5.879 0-10.289-2.453-13.228-7.114-2.94-4.662-4.409-12.021-4.409-21.589v-2.943h35.029l2.94-2.944c-.245-4.907-2.205-9.568-6.124-13.738-3.92-4.416-9.309-6.378-16.413-6.378-7.594 0-13.718 2.943-18.862 8.586-5.144 5.642-7.594 12.756-7.594 21.343 0 6.132 1.225 11.284 3.92 15.455 2.694 4.17 5.879 7.605 10.043 9.813 4.164 2.207 8.329 3.434 12.983 3.434 4.899 0 9.554-1.227 13.718-3.68 4.165-2.453 7.104-6.133 8.329-10.549l-3.185-.49Zm-34.54-23.796.245-2.453c1.47-10.059 6.369-14.965 14.453-14.965 3.43 0 6.124.981 8.329 3.19 2.205 2.207 3.43 5.15 3.43 9.076 0 .736 0 1.717-.245 2.699-.245.98-.245 1.471-.245 2.453h-25.967ZM452.938 84.145V0h-3.919l-14.943 2.944v2.944h1.225c4.164 0 7.594 3.434 7.594 7.605V42.44s-5.88-4.66-9.309-5.887c-3.43-1.227-6.614-1.963-10.289-1.963-7.104 0-13.473 2.699-18.617 8.096s-7.839 12.511-7.839 21.343c0 8.095 2.45 14.964 7.594 20.606 5.144 5.643 11.269 8.832 18.128 8.832 3.674 0 7.348-.736 10.778-2.453 3.184-1.472 6.369-3.925 9.554-6.87v3.68l2.939 2.945h15.433v-2.944l-8.329-3.68Zm-10.043-4.416c-2.45 3.19-5.145 5.642-8.084 7.114-2.94 1.718-5.879 2.453-9.309 2.453-5.144 0-9.309-1.962-12.738-6.378-3.43-4.17-5.144-10.794-5.144-19.625 0-8.832 1.714-14.965 4.899-18.89 3.429-3.925 7.594-5.888 12.493-5.888 2.94 0 5.879.736 8.819 1.963 2.939 1.226 5.879 3.189 8.819 5.642l.245 33.61ZM385.573 84.39V55.688c0-4.907-.49-8.832-1.225-11.53-.735-2.699-2.695-4.907-5.389-6.624-2.695-1.717-6.614-2.944-11.023-2.944-3.92 0-7.349.981-10.779 2.699-3.429 1.717-6.614 4.415-9.553 8.095V34.59h-3.92l-14.943 2.944v2.944h1.225c4.165 0 7.349 3.434 7.349 7.36.245 1.226.245 34.835 0 36.062l-8.574 3.68h-1.469c-4.165 0-7.349-3.435-7.349-7.36V53.97c0-4.66-.49-8.095-1.47-10.303s-2.94-4.17-6.124-6.133c-3.185-1.717-7.594-2.944-13.228-2.944-7.594 0-12.983 1.472-16.658 4.416-2.204 1.717-3.674 3.434-4.654 5.152-.49.98-.735 2.207-.735 3.189 0 4.17 3.429 7.36 7.349 7.36 3.919 0 7.349-3.435 7.349-7.36 0-2.699-1.47-5.397-3.92-6.624 1.715-2.208 4.9-3.189 9.554-3.189 3.184 0 5.879.736 8.084 1.963 1.959 1.226 4.409 3.189 4.409 6.378v3.434c0 4.416-8.329 11.776-16.902 13.493-15.433 3.19-18.618 9.813-18.618 16.927 0 3.434 1.225 7.605 3.92 9.568a16.711 16.711 0 0 0 9.798 3.189c2.94 0 6.124-.736 9.799-2.454 3.674-1.717 7.594-3.925 12.003-7.114.49 3.19 1.715 5.397 3.43 7.114 1.714 1.718 4.164 2.454 7.104 2.454 2.939 0 6.614-1.472 6.614-1.472h28.905V88.07l-8.573-3.68v-34.1c2.449-3.68 5.144-6.378 7.838-8.095 2.94-1.962 5.88-2.944 9.309-2.944 2.695 0 5.144.736 7.104 2.208 1.96 1.472 3.919 4.17 3.919 7.85v34.836l-9.063 3.68v2.944h27.681v-2.944l-8.574-3.435Zm-75.449-5.397c-2.939 2.699-5.144 3.925-7.839 5.397-2.694 1.472-6.369 2.944-8.573 2.944-2.205 0-3.92-.49-5.635-1.963-3.184-2.698-6.369-14.719 7.349-19.134 6.859-2.208 14.698-7.115 14.698-9.568v22.324ZM145.508 214.655c-6.369 0-11.268-2.453-14.452-7.114-3.185-4.661-4.9-11.53-4.9-20.116 0-8.587 1.47-14.474 4.41-18.645 2.939-4.17 7.349-6.133 13.228-6.133 3.184 0 5.634.491 6.614 1.472l.245.246c-1.96 1.471-2.94 3.434-2.94 5.887 0 4.171 3.43 7.36 7.349 7.36s7.349-3.435 7.349-7.36c0-2.208-.98-4.17-2.695-5.642-.98-.736-1.959-1.717-3.429-2.208-3.92-1.963-8.329-2.944-12.983-2.944-7.839 0-14.453 2.699-20.087 8.341-5.634 5.642-8.084 12.757-8.084 21.588 0 8.832 2.695 15.701 7.839 20.852 5.144 5.152 11.758 7.851 19.597 7.851 12.003 0 19.597-5.152 22.537-15.456h-2.94c-2.45 8.096-7.839 12.021-16.658 12.021Z"/><path d="M99.7 209.258v-73.841c0-4.171 3.185-7.36 7.349-7.36h8.084v-2.944H87.207l-29.885 73.842-30.131-73.842H0v2.944h7.349c4.164 0 7.349 3.435 7.349 7.36v61.33c0 5.887-3.43 11.039-8.574 13.492l-5.879 2.699v2.944H32.09v-2.944l-5.879-2.699c-5.144-2.453-8.574-7.605-8.574-13.492v-61.821l32.825 80.956h3.675l32.58-80.465v73.596l-8.329 3.925H72.51v2.944h42.624v-2.944h-6.859l-8.574-3.68ZM575.665 125.113v2.944h7.104c4.164 0 7.349 3.435 7.349 7.36v59.367l-52.668-69.916h-25.476v2.944h7.104c4.164 0 7.349 3.434 7.349 7.359v61.33c0 5.888-3.43 11.04-8.574 13.493l-5.879 2.699v2.943h31.845v-2.943l-5.879-2.699c-5.144-2.453-8.573-7.605-8.573-13.493v-61.33l60.996 80.711h2.939v-80.465c0-4.171 3.43-7.36 7.349-7.36h7.104v-2.944h-32.09ZM358.627 128.057c-4.164 0-7.349 3.189-7.349 7.36v41.459c0 7.605-.245 14.228-.735 17.908-.49 3.68-2.205 7.36-5.144 11.04-2.94 3.679-6.859 6.378-12.003 8.586-5.145 2.208-11.024 3.189-17.883 3.189-8.083 0-14.697-1.472-20.332-4.17-5.634-2.699-9.553-6.133-11.758-10.549-2.45-4.416-3.429-11.285-3.429-18.399v-49.064c0-4.171-3.185-7.36-7.349-7.36h-4.41v-2.944h36.745v2.944h-4.409c-4.165 0-7.349 3.189-7.349 7.36v41.459c0 9.813.49 16.682 1.224 20.607.98 4.17 3.43 7.605 7.594 10.794 4.165 3.189 9.799 4.661 16.658 4.661 5.389 0 10.533-.981 14.943-3.189 4.409-1.963 7.839-4.661 10.043-7.605 2.205-2.944 3.43-6.133 3.92-9.568.49-3.189.734-8.831.734-15.7v-41.459c0-4.171-3.429-7.36-7.348-7.36h-4.41v-2.944h90.392l1.96 21.834h-2.94c-.98-5.152-3.429-9.568-6.369-13.493-2.695-3.434-6.859-5.397-11.513-5.397h-19.597v38.515h15.677c4.165 0 7.349-3.434 7.349-7.605v-4.415h2.94v26.985h-2.94v-4.661c0-4.171-3.429-7.36-7.349-7.36h-15.677v39.742l8.573 3.68h14.698l8.574-3.68c7.594-4.17 13.228-11.53 14.943-20.361h2.939l-2.449 26.985h-68.59v-2.944l8.573-3.68v-73.841c0-4.171-3.429-7.36-7.348-7.36h-9.799ZM509.28 188.897c-1.715 8.831-7.349 16.191-14.943 20.361l-8.574 3.68h-14.698l-8.573-3.68v-39.742h15.677c4.165 0 7.349 3.189 7.349 7.36v4.661h2.94v-26.985h-2.94v4.415c0 4.171-3.429 7.605-7.349 7.605h-15.677v-38.515h19.597c4.654 0 8.818 2.208 11.513 5.397 3.184 3.68 5.389 8.341 6.369 13.493h2.94l-1.96-21.834h-63.446v2.944h4.41c4.164 0 7.348 3.189 7.348 7.36v73.841l-8.573 3.68v2.944h68.59l2.449-26.985h-2.449Z"/><path d="M291.507 228.393c-1.47 5.888-6.124 9.077-14.208 9.077-5.634 0-13.473-1.717-23.272-5.152-12.738-4.416-24.006-6.623-33.805-6.623-.979 0-2.204 0-3.674.245l19.842-10.794c10.044-3.189 17.882-8.832 23.272-16.682 5.389-7.85 8.083-17.172 8.083-27.476 0-8.831-1.959-16.927-6.124-24.287-4.164-7.359-10.043-12.756-18.127-16.681-8.084-3.68-16.168-5.643-24.741-5.643-13.963 0-25.477 4.171-34.785 12.512-9.309 8.341-13.963 19.625-13.963 33.363s4.654 25.759 13.718 34.345c9.064 8.586 20.822 12.757 35.275 12.757 2.449 0 4.654-.246 6.614-.246l-12.249 7.115c-.979.49-2.204 1.226-3.184 1.717-5.144 2.453-8.819 4.416-10.778 5.642-1.96 1.227-2.94 2.208-2.94 3.435 0 1.472.735 2.208 2.45 2.208.979 0 2.939-.982 5.389-3.19 3.919-3.434 8.084-5.151 12.248-5.151 7.104 0 15.923 3.434 26.456 10.058 5.879 3.68 10.778 6.378 14.453 7.85 3.674 1.472 7.839 2.208 12.248 2.208 6.859 0 12.493-1.963 16.658-5.642 4.409-3.926 6.859-8.832 7.594-14.72h-2.45v-.245Zm-71.774-13.983c-11.514 0-20.088-3.68-25.967-10.794-5.634-7.115-8.573-18.154-8.573-32.383 0-14.228 2.939-25.022 8.573-32.136 5.635-7.36 13.963-10.795 24.742-10.795 10.778 0 19.352 3.68 24.986 11.04 5.879 7.359 8.574 18.154 8.574 32.137s-2.94 25.022-8.819 32.382c-5.879 7.36-13.228 10.304-23.516 10.549Z"/></g><defs><clipPath id="a"><path fill="#fff" d="M0 0h608v249H0z"/></clipPath></defs></svg>