<svg width="30" height="21" viewBox="0 0 30 21" fill="none" xmlns="http://www.w3.org/2000/svg">
<path d="M30 18.4713C29.9967 19.6594 29.0343 20.6217 27.846 20.625H2.154C0.965747 20.6217 0.00329614 19.6594 0 18.4713V2.15369C0.00329614 0.965606 0.965747 0.00329567 2.154 0H27.846C29.0343 0.00329567 29.9967 0.965606 30 2.15369V18.4713Z" fill="#727272"/>
<path d="M16.9655 10.3635C16.9667 12.8448 15.4727 15.0825 13.1803 16.0328C10.8879 16.9832 8.24867 16.4592 6.49345 14.7051C4.73823 12.951 4.2128 10.3123 5.1622 8.0198C6.11161 5.72727 8.34884 4.23242 10.8305 4.23242C12.4573 4.23163 14.0178 4.87723 15.1684 6.02712C16.319 7.17701 16.9655 8.73694 16.9655 10.3635Z" fill="#ED1B2E"/>
<path d="M19.0643 4.23243C17.5425 4.23021 16.0747 4.79607 14.9483 5.8192C14.727 6.02097 14.5195 6.23742 14.3273 6.4671H15.5693C15.7381 6.67392 15.8934 6.89133 16.0343 7.11801H13.8623C13.7278 7.32715 13.6065 7.54455 13.4993 7.76891H16.3793C16.4786 7.97971 16.5658 8.19603 16.6403 8.41682H13.2473C13.1783 8.62979 13.1183 8.84576 13.0703 9.06472H16.8263C17.0582 10.144 16.997 11.2656 16.6493 12.3133H13.2473C13.3189 12.5338 13.403 12.7502 13.4993 12.9612H16.3793C16.275 13.1853 16.1568 13.4027 16.0253 13.6121H13.8623C14.0033 13.8378 14.1586 14.0542 14.3273 14.26H15.5663C15.3768 14.492 15.1702 14.7096 14.9483 14.9109C16.9783 16.7512 19.9828 17.0223 22.3096 15.5752C24.6364 14.128 25.7212 11.3136 24.9675 8.67944C24.2139 6.0453 21.8045 4.23027 19.0643 4.23243Z" fill="#FCB131"/>
<path fill-rule="evenodd" clip-rule="evenodd" d="M24.5898 13.6211C24.4845 13.6211 24.3957 13.7099 24.3828 13.8281C24.3957 13.9462 24.4845 14.035 24.5898 14.035C24.6952 14.035 24.784 13.9462 24.7968 13.8281C24.784 13.7099 24.6952 13.6211 24.5898 13.6211ZM24.7439 13.8258C24.745 13.9224 24.6769 14.002 24.5914 14.004V13.9864C24.51 13.9887 24.4407 13.9197 24.4326 13.8281C24.4326 13.7314 24.5017 13.6528 24.5872 13.6522C24.6728 13.6516 24.7427 13.7291 24.7439 13.8258ZM24.5634 13.9301H24.5198V13.726H24.61C24.6242 13.7207 24.6395 13.7207 24.6536 13.726C24.6709 13.7364 24.6816 13.7567 24.6816 13.7788C24.6816 13.8009 24.6709 13.8212 24.6536 13.8316L24.6848 13.9195H24.61L24.5914 13.8281H24.5634V13.9301ZM24.61 13.814H24.5634V13.7718H24.5851C24.5932 13.7686 24.602 13.7686 24.61 13.7718C24.6204 13.7718 24.6287 13.7812 24.6287 13.7929C24.6287 13.8045 24.6204 13.814 24.61 13.814Z" fill="#FCB131"/>
<path d="M7.95125 11.9807H7.28525L7.66925 9.58701L6.81725 11.9807H6.36125L6.30725 9.60201L5.90525 11.9807H5.28125L5.80325 8.87012H6.76025L6.78725 10.7928L7.43225 8.87012H8.46725L7.95125 11.9807Z" fill="white"/>
<path fill-rule="evenodd" clip-rule="evenodd" d="M9.52191 11.9804H10.0739C10.0919 11.7884 10.2149 11.0025 10.2839 10.6306C10.3141 10.4651 10.3321 10.2977 10.3379 10.1296C10.3379 9.6437 10.0349 9.38574 9.46191 9.38574C9.19162 9.39042 8.9236 9.43593 8.66691 9.52072C8.66691 9.52072 8.57391 10.0486 8.57391 10.0906C8.80128 10.0151 9.03932 9.97662 9.27891 9.97666C9.58791 9.97666 9.70491 10.0396 9.70491 10.2046C9.70332 10.2606 9.69424 10.3161 9.67791 10.3696C9.58834 10.3584 9.49819 10.3524 9.40791 10.3516C8.66991 10.3516 8.23791 10.7085 8.23791 11.3265C8.21947 11.4989 8.27367 11.6713 8.3875 11.8022C8.50134 11.9331 8.66453 12.0107 8.83791 12.0164C9.10552 12.0341 9.36543 11.9226 9.53691 11.7164L9.52191 11.9804ZM9.44991 10.8525C9.49985 10.8489 9.54998 10.8489 9.59991 10.8525C9.57891 11.2275 9.38391 11.4854 9.11991 11.4974C9.05294 11.4986 8.98866 11.4711 8.94335 11.4218C8.89803 11.3725 8.87603 11.3061 8.88291 11.2395C8.88291 10.9845 9.07491 10.8525 9.44991 10.8525Z" fill="white"/>
<path d="M19.0036 8.95062L18.8986 9.62852C18.7157 9.52343 18.5095 9.46569 18.2986 9.46055C17.8006 9.46055 17.4526 9.94048 17.4526 10.6244C17.4556 11.0983 17.6986 11.3983 18.0766 11.3983C18.2757 11.3893 18.4699 11.3338 18.6436 11.2363L18.5266 11.9472C18.332 12.0061 18.1299 12.0364 17.9266 12.0372C17.2096 12.0372 16.7656 11.5212 16.7656 10.6934C16.7656 9.58353 17.3656 8.80664 18.2656 8.80664C18.5177 8.81511 18.7668 8.86372 19.0036 8.95062Z" fill="white"/>
<path fill-rule="evenodd" clip-rule="evenodd" d="M20.0147 11.9804H20.5667C20.5847 11.7884 20.7017 11.0025 20.7617 10.6306C20.7949 10.4656 20.813 10.2979 20.8157 10.1296C20.8187 9.6437 20.5157 9.38574 19.9427 9.38574C19.6715 9.39062 19.4025 9.43612 19.1447 9.52072C19.1447 9.52072 19.0547 10.0486 19.0547 10.0906C19.281 10.015 19.5181 9.97653 19.7567 9.97666C20.0687 9.97666 20.1857 10.0396 20.1857 10.2046C20.1841 10.2606 20.175 10.3161 20.1587 10.3696C20.0691 10.3584 19.979 10.3524 19.8887 10.3516C19.1477 10.3516 18.7187 10.7085 18.7187 11.3265C18.6993 11.4991 18.7532 11.672 18.8672 11.8031C18.9813 11.9342 19.145 12.0116 19.3187 12.0164C19.5854 12.0336 19.8442 11.9221 20.0147 11.7164V11.9804ZM19.9337 10.8525C19.9837 10.849 20.0338 10.849 20.0837 10.8525C20.0717 11.2275 19.8767 11.4854 19.6037 11.4974C19.5367 11.4986 19.4725 11.4711 19.4272 11.4218C19.3818 11.3725 19.3598 11.3061 19.3667 11.2395C19.3667 10.9845 19.5557 10.8525 19.9337 10.8525Z" fill="white"/>
<path d="M13.0337 11.9408C12.879 11.9932 12.717 12.0206 12.5537 12.0218C12.4052 12.0354 12.2588 11.9801 12.1564 11.8718C12.054 11.7636 12.0069 11.6143 12.0287 11.4669C12.0453 11.2423 12.0753 11.019 12.1187 10.798C12.1577 10.561 12.4187 9.07324 12.4187 9.07324H13.0787L13.0007 9.45419H13.3427L13.2527 10.0541H12.8987C12.8207 10.534 12.7127 11.1339 12.7097 11.2149C12.7097 11.3439 12.7817 11.4009 12.9377 11.4009C12.9986 11.4041 13.0597 11.396 13.1177 11.3769L13.0337 11.9408Z" fill="white"/>
<path fill-rule="evenodd" clip-rule="evenodd" d="M14.3858 12.0221C14.6157 12.0225 14.8442 11.9881 15.0638 11.9202L15.1748 11.2932C14.9611 11.3983 14.726 11.4527 14.4878 11.4522C14.1008 11.4522 13.8668 11.2992 13.9118 10.9333H15.2348C15.2853 10.7301 15.3125 10.5218 15.3158 10.3124C15.3374 10.0662 15.2502 9.82279 15.0772 9.64628C14.9041 9.46978 14.6625 9.3778 14.4158 9.39452C13.7498 9.39452 13.2578 10.0304 13.2578 10.8943C13.2578 11.6352 13.6448 12.0221 14.3858 12.0221ZM14.6934 10.3955C14.6925 10.4066 14.6918 10.4151 14.6918 10.4204H13.9688C14.0288 10.1294 14.1788 9.96744 14.3918 9.96744C14.7276 9.96744 14.7016 10.2925 14.6934 10.3955Z" fill="white"/>
<path d="M10.4749 10.2495C10.4726 10.5706 10.6792 10.8561 10.9849 10.9544C11.2519 11.0834 11.2849 11.1194 11.2849 11.2333C11.2849 11.3473 11.1679 11.4643 10.9039 11.4643C10.7 11.4627 10.4976 11.4293 10.3039 11.3653C10.3039 11.3653 10.2169 11.9202 10.2109 11.9472C10.4384 11.9978 10.6709 12.023 10.9039 12.0222C11.6089 12.0222 11.9329 11.7553 11.9329 11.1763C11.9559 10.8613 11.7618 10.5709 11.4619 10.4714C11.1829 10.3455 11.1619 10.3155 11.1619 10.1985C11.1619 10.0815 11.2699 9.99151 11.4859 9.99151C11.6466 9.99298 11.8069 10.005 11.9659 10.0275L12.0589 9.44259C11.8603 9.41234 11.6598 9.3953 11.4589 9.3916C10.7329 9.3916 10.4749 9.78154 10.4749 10.2495Z" fill="white"/>
<path fill-rule="evenodd" clip-rule="evenodd" d="M23.4599 11.9807H24.0899L24.5999 8.86719H23.9519L23.8049 9.76706C23.6657 9.5511 23.4259 9.42105 23.1689 9.42211C22.5809 9.42211 22.0859 10.133 22.0859 10.9729C22.0859 11.6058 22.4039 12.0227 22.8899 12.0227C23.1213 12.023 23.341 11.9208 23.4899 11.7438L23.4599 11.9807ZM23.6279 10.5469C23.6279 11.0479 23.3999 11.3988 23.0999 11.3988C22.8809 11.3988 22.7669 11.2278 22.7609 10.9009C22.7609 10.403 22.9769 10.049 23.2769 10.049C23.5049 10.049 23.6279 10.223 23.6279 10.5469Z" fill="white"/>
<path d="M21.1632 9.4482C21.0792 10.2311 20.9322 11.026 20.8152 11.8089L20.7852 11.9798H21.4512C21.6912 10.4321 21.7512 10.1291 22.1202 10.1801C22.1656 9.92315 22.2517 9.67507 22.3752 9.4452C22.0962 9.38821 21.9402 9.54419 21.7362 9.84415C21.7595 9.71743 21.7726 9.58903 21.7752 9.4602L21.1632 9.4482Z" fill="white"/>
<path d="M15.6827 9.4482C15.5987 10.2311 15.4517 11.026 15.3347 11.8089L15.3047 11.9798H15.9707C16.2077 10.4321 16.2707 10.1291 16.6397 10.1801C16.6857 9.92372 16.7707 9.6759 16.8917 9.4452C16.6127 9.38821 16.4567 9.54419 16.2527 9.84415C16.2785 9.71773 16.2925 9.5892 16.2947 9.4602L15.6827 9.4482Z" fill="white"/>
<path fill-rule="evenodd" clip-rule="evenodd" d="M24.4863 11.6117C24.4223 11.6487 24.3828 11.717 24.3828 11.791C24.3828 11.9053 24.4755 11.9979 24.5898 11.9979C24.7041 11.9979 24.7968 11.9053 24.7968 11.791C24.7968 11.717 24.7574 11.6487 24.6933 11.6117C24.6293 11.5747 24.5504 11.5747 24.4863 11.6117ZM24.7401 11.8505C24.7145 11.9105 24.6551 11.949 24.5898 11.9477C24.5039 11.9461 24.4347 11.8768 24.433 11.791C24.4317 11.7257 24.4702 11.6662 24.5303 11.6407C24.5903 11.6151 24.6599 11.6286 24.706 11.6748C24.7522 11.7209 24.7657 11.7904 24.7401 11.8505ZM24.5616 11.8788H24.5208V11.7031H24.6118C24.6262 11.6999 24.6412 11.6999 24.6557 11.7031C24.671 11.714 24.6803 11.7314 24.6808 11.7502C24.681 11.7708 24.6685 11.7895 24.6494 11.7972L24.6808 11.8756H24.6118L24.5835 11.8035H24.5522L24.5616 11.8788ZM24.5867 11.7784H24.5616V11.7408H24.5867H24.6118C24.6184 11.7447 24.6224 11.7519 24.6224 11.7596C24.6224 11.7673 24.6184 11.7744 24.6118 11.7784C24.6037 11.7816 24.5947 11.7816 24.5867 11.7784Z" fill="white"/>
</svg>
