<svg width="24" height="24" viewBox="0 0 24 24" fill="none" xmlns="http://www.w3.org/2000/svg">
<path fill-rule="evenodd" clip-rule="evenodd" d="M14.29 11.29C14.29 12.9469 12.9469 14.29 11.29 14.29C9.63318 14.29 8.29004 12.9469 8.29004 11.29C8.29004 9.63315 9.63318 8.29001 11.29 8.29001C12.9469 8.29001 14.29 9.63315 14.29 11.29ZM13.7429 14.4499C13.0655 14.9765 12.2144 15.29 11.29 15.29C9.0809 15.29 7.29004 13.4991 7.29004 11.29C7.29004 9.08087 9.0809 7.29001 11.29 7.29001C13.4992 7.29001 15.29 9.08087 15.29 11.29C15.29 12.2144 14.9765 13.0655 14.45 13.7428L16.6425 15.9353L16.7147 16.7146L15.9321 16.6392L13.7429 14.4499Z" fill="black"/>
</svg>
