<svg width="24" height="24" viewBox="0 0 24 24" fill="none" xmlns="http://www.w3.org/2000/svg">
<circle cx="12" cy="12" r="6.5" stroke="black"/>
<path d="M6 11.5C6 11.2239 5.77614 11 5.5 11C5.22386 11 5 11.2239 5 11.5H6ZM18.0528 10.7764C17.8902 11.1016 17.3432 11.5644 16.3082 11.9478C15.3035 12.32 13.9261 12.5833 12.25 12.5833V13.5833C14.0257 13.5833 15.5232 13.305 16.6556 12.8855C17.7577 12.4773 18.6098 11.8984 18.9472 11.2236L18.0528 10.7764ZM12.25 12.5833C10.5379 12.5833 8.88801 12.4755 7.67894 12.2329C7.06982 12.1107 6.60889 11.9611 6.31268 11.796C6.00213 11.623 6 11.5111 6 11.5H5C5 12.0642 5.41015 12.4379 5.82588 12.6696C6.25595 12.9092 6.83532 13.0836 7.48222 13.2134C8.78521 13.4748 10.5103 13.5833 12.25 13.5833V12.5833Z" fill="black"/>
<path d="M12 5.5C14.1242 5.5 15.5 9.04822 15.5 12.5C15.5 15.9518 14.1242 18.5 12 18.5" stroke="black"/>
<path d="M12 5.5C10.3431 5.5 9 8.93345 9 12.5521C9 16.1706 10.3431 18.5 12 18.5" stroke="black"/>
</svg>
